<svg width="512" height="512" viewBox="0 0 512 512" fill="none" xmlns="http://www.w3.org/2000/svg">
<g clip-path="url(#clip0_145_188)">
<rect width="512" height="512" rx="256" fill="white"/>
<path fill-rule="evenodd" clip-rule="evenodd" d="M512 0H0V512H512V0ZM197.295 245.592L177.201 234.083C173.249 231.819 170.919 227.513 171.186 222.966L177.985 107.296C178.358 100.953 183.611 96 189.965 96H233.779C240.804 96 246.327 102.008 245.737 109.008L242.26 150.265L237.864 194.371C237.747 195.553 237.454 196.711 236.996 197.807L220.849 236.459C219.639 239.356 217.331 241.64 214.501 243.001C212.798 243.821 211.019 244.725 209.135 245.72C205.414 247.685 200.946 247.683 197.295 245.592ZM152.841 376.955C176.781 399.404 209.08 416 254.129 416C313.599 416 366 372.826 366 298.494C366 230.145 315.967 204.544 256.565 202.324C251.383 202.13 246.775 205.495 245.158 210.423L234.166 243.928C231.455 252.192 238.197 260.518 246.883 260.967C268.653 262.093 291.974 270.462 291.974 300.274C291.974 334.547 273.259 351.906 243.316 351.906C223.605 351.906 205.773 343.002 190.466 330.27C184.632 325.418 175.712 326.185 171.463 332.473L151.401 362.162C148.247 366.83 148.731 373.101 152.841 376.955ZM269.291 96C263.016 96 257.801 100.834 257.325 107.09L254.69 141.741C254.16 148.707 259.67 154.651 266.656 154.651H340.702C346.88 154.651 352.048 149.961 352.645 143.812L356.013 109.161C356.698 102.108 351.155 96 344.069 96H269.291Z" fill="#202020"/>
</g>
<defs>
<clipPath id="clip0_145_188">
<rect width="512" height="512" rx="256" fill="white"/>
</clipPath>
</defs>
</svg>
