<svg width="512" height="512" viewBox="0 0 512 512" fill="none" xmlns="http://www.w3.org/2000/svg">
<g clip-path="url(#clip0_182_38)">
<path d="M0 218.453C0 141.988 0 103.755 14.8812 74.5485C27.9712 48.8581 48.8581 27.9712 74.5485 14.8812C103.755 0 141.988 0 218.453 0H293.547C370.013 0 408.245 0 437.452 14.8812C463.142 27.9712 484.029 48.8581 497.119 74.5485C512 103.755 512 141.988 512 218.453V293.547C512 370.013 512 408.245 497.119 437.452C484.029 463.142 463.142 484.029 437.452 497.119C408.245 512 370.013 512 293.547 512H218.453C141.988 512 103.755 512 74.5485 497.119C48.8581 484.029 27.9712 463.142 14.8812 437.452C0 408.245 0 370.013 0 293.547V218.453Z" fill="#202020"/>
<path d="M179.925 235.643L194.81 244.169C200.004 247.143 206.342 247.115 211.676 244.401C212.002 244.236 212.325 244.073 212.645 243.913C216.639 241.916 219.925 238.671 221.646 234.551L236.705 198.504C237.356 196.946 237.772 195.299 237.939 193.618L242.26 150.265L245.274 114.5C246.113 104.544 238.259 96 228.268 96H194.742C185.706 96 178.235 103.044 177.705 112.065L171.37 219.832C170.99 226.299 174.304 232.424 179.925 235.643Z" fill="white"/>
<path d="M155.847 379.703C179.468 400.745 210.939 416 254.129 416C313.599 416 366 372.826 366 298.494C366 231.555 318.009 205.618 260.228 202.491C252.863 202.092 246.313 206.902 244.014 213.91L236.603 236.498C232.747 248.252 242.418 259.985 254.668 261.699C273.867 264.385 291.974 274.004 291.974 300.274C291.974 334.547 273.259 351.906 243.316 351.906C225.657 351.906 209.507 344.76 195.329 334.117C186.698 327.638 174.034 328.669 167.991 337.611L153.682 358.787C149.196 365.426 149.864 374.373 155.847 379.703Z" fill="#82B4FF"/>
<path d="M256.969 111.772C257.646 102.874 265.063 96 273.987 96H338.486C348.564 96 356.448 104.687 355.473 114.717L353.09 139.235C352.24 147.98 344.89 154.651 336.104 154.651H272.122C262.187 154.651 254.351 146.197 255.105 136.29L256.969 111.772Z" fill="#FFC93D"/>
</g>
<defs>
<clipPath id="clip0_182_38">
<rect width="512" height="512" fill="white"/>
</clipPath>
</defs>
</svg>
