<svg width="32" height="32" viewBox="0 0 32 32" fill="none" xmlns="http://www.w3.org/2000/svg">
<g clip-path="url(#clip0_150_361)">
<rect width="32" height="32" rx="8" fill="white"/>
<rect width="32" height="32" fill="#202020"/>
<path d="M11.2095 14.7072L12.2083 15.2793C12.5126 15.4536 12.8842 15.4523 13.1962 15.2922C13.2364 15.2716 13.2759 15.2517 13.3147 15.2324C13.549 15.1161 13.7416 14.926 13.8424 14.6846L14.7979 12.3973C14.836 12.306 14.8604 12.2095 14.8702 12.1111L15.1413 9.39157L15.3357 7.08398C15.3849 6.50063 14.9247 6 14.3393 6H12.1085C11.579 6 11.1413 6.41274 11.1103 6.94132L10.7082 13.7808C10.686 14.1597 10.8801 14.5185 11.2095 14.7072Z" fill="white"/>
<path d="M9.7005 23.6956C11.1812 25.0292 13.1592 26 15.883 26C19.6 26 22.875 23.3016 22.875 18.6559C22.875 14.4535 19.8487 12.8367 16.2159 12.6531C15.7842 12.6313 15.4006 12.9128 15.2659 13.3235L14.7556 14.8789C14.5297 15.5676 15.095 16.2569 15.8147 16.343C17.0517 16.4908 18.2483 17.0788 18.2483 18.7671C18.2483 20.9092 17.0787 21.9941 15.2072 21.9941C14.0765 21.9941 13.0447 21.5253 12.1431 20.833C11.6415 20.4478 10.8992 20.5091 10.5451 21.0331L9.57511 22.4686C9.31224 22.8576 9.35164 23.3814 9.7005 23.6956Z" fill="#82B4FF"/>
<path d="M16.0652 6.92417C16.1049 6.4028 16.5395 6 17.0624 6H21.2288C21.8193 6 22.2812 6.50898 22.2241 7.09672L22.0623 8.76241C22.0125 9.27482 21.5818 9.66569 21.067 9.66569H16.9357C16.3535 9.66569 15.8944 9.17035 15.9386 8.58986L16.0652 6.92417Z" fill="#FFC93D"/>
</g>
<defs>
<clipPath id="clip0_150_361">
<rect width="32" height="32" rx="8" fill="white"/>
</clipPath>
</defs>
</svg>
